<?xml version="1.0" standalone="no"?>
<!DOCTYPE svg PUBLIC "-//W3C//DTD SVG 20010904//EN"
 "http://www.w3.org/TR/2001/REC-SVG-20010904/DTD/svg10.dtd">
<svg version="1.0" xmlns="http://www.w3.org/2000/svg"
 width="1792.000000pt" height="1792.000000pt" viewBox="0 0 1792.000000 1792.000000"
 preserveAspectRatio="xMidYMid meet">
<metadata>
Created by potrace 1.14, written by Peter Selinger 2001-2017
</metadata>
<g transform="translate(0.000000,1792.000000) scale(0.100000,-0.100000)"
fill="#000000" stroke="none">
<path d="M4665 13740 c-38 -10 -77 -20 -85 -22 -8 -1 -18 -7 -21 -11 -3 -5
-13 -9 -21 -11 -9 -1 -45 -20 -79 -41 -66 -41 -109 -82 -1004 -969 -258 -256
-473 -466 -477 -466 -4 0 -8 -4 -8 -8 0 -5 -52 -60 -116 -123 -63 -63 -273
-271 -466 -462 -193 -192 -365 -359 -381 -373 -15 -13 -27 -24 -25 -24 5 0
-118 -122 -832 -830 -891 -883 -996 -988 -1021 -1027 -42 -62 -63 -97 -66
-108 -1 -5 -15 -44 -29 -85 -48 -132 -41 -312 17 -459 45 -114 95 -169 628
-699 289 -288 541 -537 559 -553 18 -16 31 -29 29 -29 -3 0 36 -39 85 -87 104
-102 603 -596 1608 -1593 391 -388 867 -859 1057 -1048 327 -324 447 -432 479
-432 8 0 14 -5 14 -10 0 -6 3 -9 8 -8 4 1 17 -3 28 -10 12 -6 24 -8 28 -5 3 3
6 2 6 -4 0 -11 34 -20 135 -37 6 -1 15 -4 20 -7 11 -6 165 -2 205 5 14 2 45
10 70 17 25 7 48 12 53 11 4 -1 7 3 7 10 0 6 3 8 7 5 8 -8 124 54 173 93 19
15 191 182 382 371 191 189 401 398 467 463 67 66 121 120 121 122 0 2 24 25
53 53 28 27 230 226 449 443 218 216 730 724 1138 1128 407 404 952 944 1210
1200 258 256 477 472 487 481 10 9 25 26 33 37 8 12 17 22 20 22 5 0 326 317
1748 1728 1296 1285 1627 1612 1635 1612 4 0 7 6 8 13 1 6 22 31 48 54 l47 42
447 -442 c245 -243 801 -794 1234 -1224 433 -429 943 -934 1132 -1122 303
-300 342 -342 331 -357 -17 -19 -172 -174 -268 -266 -39 -38 -69 -68 -68 -68
1 0 -36 -38 -83 -85 -46 -47 -85 -85 -86 -85 -1 0 -230 -227 -511 -505 -280
-278 -557 -553 -616 -611 -60 -59 -108 -111 -108 -117 0 -6 -2 -8 -5 -5 -3 2
-204 -193 -447 -434 -244 -241 -500 -496 -570 -565 -71 -69 -128 -131 -128
-136 0 -6 -2 -8 -5 -5 -3 3 -59 -48 -124 -113 -65 -66 -122 -119 -125 -119 -4
0 -159 151 -344 335 -1193 1185 -1329 1318 -1343 1309 -5 -3 -9 -2 -9 3 0 20
-174 94 -227 96 -7 0 -13 3 -13 7 0 15 -255 3 -310 -14 -30 -9 -63 -19 -72
-21 -9 -2 -27 -9 -40 -16 -13 -7 -26 -12 -30 -11 -5 1 -8 -2 -8 -7 0 -5 -8
-11 -17 -15 -46 -15 -213 -163 -213 -187 0 -4 -6 -14 -14 -22 -26 -25 -80
-144 -90 -197 -1 -3 -4 -10 -8 -15 -3 -6 -9 -42 -13 -80 -4 -39 -9 -73 -11
-77 -2 -3 2 -9 8 -11 10 -4 10 -6 0 -6 -7 -1 -11 -5 -8 -10 4 -5 8 -34 11 -65
8 -102 62 -238 126 -318 16 -20 29 -41 29 -47 0 -5 4 -11 10 -13 5 -1 323
-313 706 -693 383 -379 863 -856 1067 -1058 205 -203 396 -384 426 -404 64
-43 169 -88 226 -99 22 -3 45 -10 50 -13 18 -12 231 -2 265 13 8 3 24 7 35 9
11 1 26 6 33 10 6 5 12 6 12 3 0 -11 148 72 191 105 23 19 200 191 393 382
193 192 377 373 409 404 31 30 57 56 57 58 0 1 36 38 81 81 44 44 279 276 522
517 2852 2827 2837 2811 2837 2847 0 5 5 10 10 10 6 0 10 4 10 9 0 5 10 30 22
57 12 27 23 54 24 59 40 153 42 298 5 405 -26 80 -80 190 -92 190 -5 0 -9 6
-9 14 0 13 -310 325 -1100 1106 -190 188 -698 692 -1130 1120 -432 428 -963
955 -1180 1170 -217 215 -497 492 -621 615 -206 204 -327 305 -366 305 -7 0
-13 3 -13 8 0 7 -112 43 -155 50 -11 2 -65 5 -120 7 -108 3 -204 -15 -286 -54
-23 -12 -49 -21 -56 -21 -7 0 -13 -4 -13 -8 0 -5 -19 -19 -42 -32 -24 -13
-181 -161 -351 -329 -170 -169 -492 -488 -717 -711 -225 -223 -715 -709 -1090
-1080 -374 -371 -885 -877 -1135 -1125 -249 -247 -794 -787 -1210 -1200 -416
-412 -924 -916 -1130 -1120 -205 -203 -680 -674 -1054 -1045 -375 -371 -686
-676 -691 -678 -6 -2 -10 -10 -10 -18 0 -8 -3 -14 -8 -14 -4 0 -114 -106 -244
-235 -130 -129 -240 -235 -244 -235 -3 0 -117 110 -253 245 -264 263 -831 824
-1863 1847 -355 352 -652 645 -660 649 -7 5 -9 9 -4 9 5 0 -2 9 -15 19 -26 21
-326 317 -348 345 -12 15 26 55 372 399 599 594 1800 1784 2310 2289 l462 458
48 -48 c26 -26 254 -252 507 -502 1131 -1121 1119 -1110 1148 -1110 6 0 12 -4
14 -8 7 -17 152 -75 183 -73 2 0 22 -5 42 -12 52 -18 203 -14 288 7 39 10 107
36 153 58 203 99 369 346 367 545 0 29 3 53 7 53 4 0 6 6 3 13 -2 6 -6 40 -9
73 -11 111 -67 248 -139 339 -17 22 -166 173 -331 335 -164 162 -306 303 -315
314 -9 10 -38 40 -66 66 -27 27 -277 274 -555 550 -1009 1000 -935 932 -1065
990 -131 59 -305 74 -440 40z"/>
</g>
</svg>
