<svg viewBox="0 0 448 240" fill="none" xmlns="http://www.w3.org/2000/svg">
<path fill-rule="evenodd" clip-rule="evenodd" d="M108.431 5.00293C115.16 -1.66764 126.07 -1.66764 132.799 5.00293L184.492 56.2462C191.221 62.9168 191.221 73.7319 184.492 80.4025C177.763 87.073 166.853 87.073 160.124 80.4025L120.615 41.2374L41.5988 119.568L120.615 197.898L315.201 5.00293C321.93 -1.66764 332.84 -1.66764 339.569 5.00293L442.953 107.489C449.682 114.16 449.682 124.975 442.953 131.646L339.569 234.132C332.84 240.803 321.93 240.803 315.201 234.132L263.508 182.889C256.779 176.218 256.779 165.403 263.508 158.733C270.237 152.062 281.147 152.062 287.876 158.733L327.385 197.898L406.401 119.568L327.385 41.2374L132.799 234.132C126.07 240.803 115.16 240.803 108.431 234.132L5.04678 131.646C-1.68226 124.975 -1.68226 114.16 5.04678 107.489L108.431 5.00293Z" fill="url(#paint0_linear_340_17)"/>
<defs>
<linearGradient id="paint0_linear_340_17" x1="335.426" y1="-42.1333" x2="76.1071" y2="257.32" gradientUnits="userSpaceOnUse">
<stop stop-color="#B224EF"/>
<stop offset="1" stop-color="#7579FF"/>
</linearGradient>
</defs>
</svg>
